<svg width="24" height="25" viewBox="0 0 24 25" fill="none" xmlns="http://www.w3.org/2000/svg">
<path d="M21.97 18.4164C21.97 18.7764 21.89 19.1464 21.72 19.5064C21.55 19.8664 21.33 20.2064 21.04 20.5264C20.55 21.0664 20.01 21.4564 19.4 21.7064C18.8 21.9564 18.15 22.0864 17.45 22.0864C16.43 22.0864 15.34 21.8464 14.19 21.3564C13.04 20.8664 11.89 20.2064 10.75 19.3764C9.6 18.5364 8.51 17.6064 7.47 16.5764C6.44 15.5364 5.51 14.4464 4.68 13.3064C3.86 12.1664 3.2 11.0264 2.72 9.89643C2.24 8.75643 2 7.66643 2 6.62643C2 5.94643 2.12 5.29643 2.36 4.69643C2.6 4.08643 2.98 3.52643 3.51 3.02643C4.15 2.39643 4.85 2.08643 5.59 2.08643C5.87 2.08643 6.15 2.14643 6.4 2.26643C6.66 2.38643 6.89 2.56643 7.07 2.82643L9.39 6.09643C9.57 6.34643 9.7 6.57643 9.79 6.79643C9.88 7.00643 9.93 7.21643 9.93 7.40643C9.93 7.64643 9.86 7.88643 9.72 8.11643C9.59 8.34643 9.4 8.58643 9.16 8.82643L8.4 9.61643C8.29 9.72643 8.24 9.85643 8.24 10.0164C8.24 10.0964 8.25 10.1664 8.27 10.2464C8.3 10.3264 8.33 10.3864 8.35 10.4464C8.53 10.7764 8.84 11.2064 9.28 11.7264C9.73 12.2464 10.21 12.7764 10.73 13.3064C11.27 13.8364 11.79 14.3264 12.32 14.7764C12.84 15.2164 13.27 15.5164 13.61 15.6964C13.66 15.7164 13.72 15.7464 13.79 15.7764C13.87 15.8064 13.95 15.8164 14.04 15.8164C14.21 15.8164 14.34 15.7564 14.45 15.6464L15.21 14.8964C15.46 14.6464 15.7 14.4564 15.93 14.3364C16.16 14.1964 16.39 14.1264 16.64 14.1264C16.83 14.1264 17.03 14.1664 17.25 14.2564C17.47 14.3464 17.7 14.4764 17.95 14.6464L21.26 16.9964C21.52 17.1764 21.7 17.3864 21.81 17.6364C21.91 17.8864 21.97 18.1364 21.97 18.4164Z" stroke="#D6D6D6" stroke-width="1.5" stroke-miterlimit="10"/>
</svg>
