<svg width="24" height="25" viewBox="0 0 24 25" fill="none" xmlns="http://www.w3.org/2000/svg">
<path d="M14 9.66475V12.5647H16.6C16.8 12.5647 16.9 12.7647 16.9 12.9647L16.5 14.8647C16.5 14.9647 16.3 15.0647 16.2 15.0647H14V22.3647H11V15.1647H9.3C9.1 15.1647 9 15.0647 9 14.8647V12.9647C9 12.7647 9.1 12.6647 9.3 12.6647H11V9.36475C11 7.66475 12.3 6.36475 14 6.36475H16.7C16.9 6.36475 17 6.46475 17 6.66475V9.06475C17 9.26475 16.9 9.36475 16.7 9.36475H14.3C14.1 9.36475 14 9.46475 14 9.66475Z" stroke="#D6D6D6" stroke-width="1.5" stroke-miterlimit="10" stroke-linecap="round"/>
<path d="M15 22.3647H9C4 22.3647 2 20.3647 2 15.3647V9.36475C2 4.36475 4 2.36475 9 2.36475H15C20 2.36475 22 4.36475 22 9.36475V15.3647C22 20.3647 20 22.3647 15 22.3647Z" stroke="#D6D6D6" stroke-width="1.5" stroke-linecap="round" stroke-linejoin="round"/>
</svg>
