<svg width="24" height="25" viewBox="0 0 24 25" fill="none" xmlns="http://www.w3.org/2000/svg">
<path d="M9 22.3647H15C20 22.3647 22 20.3647 22 15.3647V9.36475C22 4.36475 20 2.36475 15 2.36475H9C4 2.36475 2 4.36475 2 9.36475V15.3647C2 20.3647 4 22.3647 9 22.3647Z" stroke="#D6D6D6" stroke-width="1.5" stroke-linecap="round" stroke-linejoin="round"/>
<path d="M12 15.8647C13.933 15.8647 15.5 14.2977 15.5 12.3647C15.5 10.4317 13.933 8.86475 12 8.86475C10.067 8.86475 8.5 10.4317 8.5 12.3647C8.5 14.2977 10.067 15.8647 12 15.8647Z" stroke="#D6D6D6" stroke-width="1.5" stroke-linecap="round" stroke-linejoin="round"/>
<path d="M17.6361 7.36475H17.6477" stroke="#D6D6D6" stroke-width="2" stroke-linecap="round" stroke-linejoin="round"/>
</svg>
