<svg fill="none" viewBox="0 0 64 64" xmlns="http://www.w3.org/2000/svg">
  <defs>
    <linearGradient id="__JETBRAINS_COM__LOGO_PREFIX__95" x1="4.325" x2="62.921" y1="59.933" y2="1.337" gradientUnits="userSpaceOnUse">
      <stop offset="0.29" stop-color="#FF45ED"></stop>
      <stop offset="0.7" stop-color="#FF0A67"></stop>
    </linearGradient>
    <linearGradient id="__JETBRAINS_COM__LOGO_PREFIX__94" x1="-0.391" x2="24.393" y1="7.671" y2="61.125" gradientUnits="userSpaceOnUse">
      <stop offset="0.3" stop-color="#FDB60D"></stop>
      <stop offset="0.54" stop-color="#FF45ED"></stop>
    </linearGradient>
  </defs>
  <path fill="url(#__JETBRAINS_COM__LOGO_PREFIX__95)" d="M59.876 0H25.749a4.125 4.125 0 0 0-3.8 2.52L6.15 39.943a4.118 4.118 0 0 0-.325 1.638l.15 18.329A4.125 4.125 0 0 0 10.101 64h17.666a4.13 4.13 0 0 0 2.266-.678l32.109-21.109a4.124 4.124 0 0 0 1.859-3.447V4.125A4.125 4.125 0 0 0 59.876 0Z"></path>
  <path fill="url(#__JETBRAINS_COM__LOGO_PREFIX__94)" d="M14.987 6H4.125A4.125 4.125 0 0 0 0 10.125v12.566c0 .2.014.4.044.598l5.448 37.185A4.125 4.125 0 0 0 9.573 64H24.97a4.125 4.125 0 0 0 4.125-4.127l-.004-18.504c0-.426-.066-.849-.196-1.254L18.917 8.871A4.126 4.126 0 0 0 14.987 6Z"></path>
  <path fill="#FDB60D" d="M16.45 6H4.19a4.125 4.125 0 0 0-4.124 4.19L0 21c.019 1.181.786 2.53 1.683 3.3l38.159 32.706c.747.64 1.7.993 2.684.993h11.35A4.125 4.125 0 0 0 58 53.874V42.871c0-1.19-.514-2.321-1.409-3.104L19.166 7.02A4.124 4.124 0 0 0 16.45 6Z"></path>
  <path fill="#000" d="M52 12H12v40h40V12Z"></path>
  <path fill="#fff" d="M33 44H17v3h16v-3ZM19 16h10c2.5 0 4.5 1.5 4.5 4s-2 4-4.5 4h-8v4h8c2.5 0 4.5 2 4.5 4.5S31.5 36 29 36H19v-4h8c1.5 0 2.5-1 2.5-2.5S28.5 27 27 27h-8v-11Z"></path>
</svg>
