<svg fill="none" viewBox="0 0 64 64" xmlns="http://www.w3.org/2000/svg">
  <defs>
    <linearGradient id="__JETBRAINS_COM__LOGO_PREFIX__97" x1="56.329" x2="2.874" y1="-0.391" y2="24.392" gradientUnits="userSpaceOnUse">
      <stop offset="0.16" stop-color="#D249FC"></stop>
      <stop offset="0.55" stop-color="#FF2D90"></stop>
    </linearGradient>
    <linearGradient id="__JETBRAINS_COM__LOGO_PREFIX__96" x1="4.067" x2="62.664" y1="4.326" y2="62.923" gradientUnits="userSpaceOnUse">
      <stop offset="0.3" stop-color="#FF2D90"></stop>
      <stop offset="0.7" stop-color="#7256FF"></stop>
    </linearGradient>
  </defs>
  <path fill="#D249FC" d="M58 16.446V4.187A4.125 4.125 0 0 0 53.81.063L42.765.239A4.125 4.125 0 0 0 39.7 1.68L6.993 39.837A4.13 4.13 0 0 0 6 42.522v11.35a4.125 4.125 0 0 0 4.125 4.124h11.003c1.19 0 2.321-.514 3.104-1.409L56.98 19.162A4.124 4.124 0 0 0 58 16.446Z"></path>
  <path fill="url(#__JETBRAINS_COM__LOGO_PREFIX__97)" d="M58 14.988V4.125A4.125 4.125 0 0 0 53.875 0H41.309c-.2 0-.4.014-.598.044L3.527 5.492A4.125 4.125 0 0 0 0 9.573v15.398a4.125 4.125 0 0 0 4.126 4.125l18.505-.005a4.13 4.13 0 0 0 1.253-.195l31.246-9.98A4.126 4.126 0 0 0 58 14.988Z"></path>
  <path fill="url(#__JETBRAINS_COM__LOGO_PREFIX__96)" d="M64 59.878V25.75a4.125 4.125 0 0 0-2.52-3.8L24.057 6.153a4.118 4.118 0 0 0-1.638-.325l-18.329.15A4.124 4.124 0 0 0 0 10.103v17.665c0 .806.236 1.593.678 2.267l21.109 32.109a4.124 4.124 0 0 0 3.447 1.859h34.641A4.125 4.125 0 0 0 64 59.878Z"></path>
  <path fill="#000" d="M52 12H12v40h40V12Z"></path>
  <path fill="#fff" d="M33 44H17v3h16v-3ZM24.5 20c2.8 0 5 0.8 6.6 2.3 1.6 1.5 2.4 3.5 2.4 6 0 2.5-0.8 4.5-2.4 6-1.6 1.5-3.8 2.3-6.6 2.3-2.9 0-5.1-0.8-6.7-2.3-1.6-1.5-2.4-3.5-2.4-6 0-2.5 0.8-4.5 2.4-6 1.6-1.5 3.8-2.3 6.7-2.3Zm0 2.5c-2.2 0-3.8 0.6-4.9 1.8s-1.7 2.7-1.7 4.5c0 1.9 0.6 3.3 1.7 4.5s2.7 1.8 4.9 1.8c2.1 0 3.8-0.6 4.8-1.8s1.7-2.6 1.7-4.5c0-1.8-0.6-3.3-1.7-4.5s-2.7-1.8-4.8-1.8Z"></path>
</svg>
