<svg fill="none" viewBox="0 0 64 64"  xmlns="http://www.w3.org/2000/svg">
  <defs>
    <linearGradient id="__JETBRAINS_COM__LOGO_PREFIX__89" x1="64.391" x2="39.607" y1="56.329" y2="2.874" gradientUnits="userSpaceOnUse">
      <stop offset="0.21" stop-color="#007DFE"></stop>
      <stop offset="0.55" stop-color="#FFB700"></stop>
    </linearGradient>
    <linearGradient id="__JETBRAINS_COM__LOGO_PREFIX__88" x1="59.676" x2="1.08" y1="4.067" y2="62.663" gradientUnits="userSpaceOnUse">
      <stop offset="0.23" stop-color="#FFB700"></stop>
      <stop offset="0.73" stop-color="#FF0A67"></stop>
    </linearGradient>
  </defs>
  <path fill="#007DFE" d="M47.55 58h12.258a4.125 4.125 0 0 0 4.124-4.19l-.176-11.044a4.124 4.124 0 0 0-1.44-3.066L24.158 6.993A4.126 4.126 0 0 0 21.474 6H10.125A4.125 4.125 0 0 0 6 10.125v11.003c0 1.19.514 2.321 1.409 3.104L44.834 56.98A4.124 4.124 0 0 0 47.55 58Z"></path>
  <path fill="url(#__JETBRAINS_COM__LOGO_PREFIX__89)" d="M49.013 58h10.862A4.125 4.125 0 0 0 64 53.875V41.309c0-.2-.014-.4-.044-.598L58.508 3.527A4.125 4.125 0 0 0 54.427 0H39.029a4.125 4.125 0 0 0-4.125 4.126l.005 18.505c0 .425.066.848.195 1.253l9.979 31.246a4.126 4.126 0 0 0 3.93 2.87Z"></path>
  <path fill="url(#__JETBRAINS_COM__LOGO_PREFIX__88)" d="M4.125 64h34.127a4.125 4.125 0 0 0 3.8-2.52L57.85 24.057c.219-.518.33-1.076.324-1.638l-.15-18.329A4.124 4.124 0 0 0 53.9 0H36.234a4.13 4.13 0 0 0-2.266.678L1.86 21.787A4.125 4.125 0 0 0 0 25.234v34.641A4.125 4.125 0 0 0 4.125 64Z"></path>
  <path fill="#000" d="M52 12H12v40h40V12Z"></path>
  <path fill="#fff" d="M16.992 16.992h3v15.006h-3V16.992Zm6 0h3v15.006h-3V16.992Zm6 0h3v15.006h-3V16.992Z"></path>
</svg>
